<svg width="20" height="23" viewBox="0 0 20 23" fill="none" xmlns="http://www.w3.org/2000/svg">
<path d="M19.3691 6.50594L13.2441 0.380938C13.1627 0.299708 13.0662 0.235295 12.96 0.191381C12.8538 0.147466 12.7399 0.12491 12.625 0.125H2.125C1.66087 0.125 1.21575 0.309375 0.887563 0.637563C0.559374 0.965752 0.375 1.41087 0.375 1.875V21.125C0.375 21.5891 0.559374 22.0342 0.887563 22.3624C1.21575 22.6906 1.66087 22.875 2.125 22.875H17.875C18.3391 22.875 18.7842 22.6906 19.1124 22.3624C19.4406 22.0342 19.625 21.5891 19.625 21.125V7.125C19.6251 7.01006 19.6025 6.89623 19.5586 6.79001C19.5147 6.68379 19.4503 6.58726 19.3691 6.50594ZM13.5 3.11203L16.638 6.25H13.5V3.11203ZM17.875 21.125H2.125V1.875H11.75V7.125C11.75 7.35706 11.8422 7.57962 12.0063 7.74372C12.1704 7.90781 12.3929 8 12.625 8H17.875V21.125Z" fill="#888888"/>
</svg>
