<svg width="19" height="18" viewBox="0 0 19 18" fill="none" xmlns="http://www.w3.org/2000/svg">
<path d="M3.875 16.5V12.75M3.875 5.25V1.5M2 3.375H5.75M2 14.625H5.75M10.25 2.25L8.94937 5.63165C8.73786 6.18157 8.6321 6.45653 8.46765 6.68781C8.32189 6.8928 8.1428 7.07189 7.93781 7.21765C7.70653 7.3821 7.43157 7.48786 6.88165 7.69937L3.5 9L6.88165 10.3006C7.43157 10.5121 7.70653 10.6179 7.93781 10.7824C8.1428 10.9281 8.32189 11.1072 8.46765 11.3122C8.6321 11.5435 8.73786 11.8184 8.94937 12.3684L10.25 15.75L11.5506 12.3684C11.7621 11.8184 11.8679 11.5435 12.0324 11.3122C12.1781 11.1072 12.3572 10.9281 12.5622 10.7824C12.7935 10.6179 13.0684 10.5121 13.6184 10.3006L17 9L13.6184 7.69937C13.0684 7.48786 12.7935 7.3821 12.5622 7.21765C12.3572 7.07189 12.1781 6.8928 12.0324 6.68781C11.8679 6.45653 11.7621 6.18157 11.5506 5.63165L10.25 2.25Z" stroke="white" stroke-width="1.5" stroke-linecap="round" stroke-linejoin="round"/>
</svg>
